# xmcd CD database file
#
# Track frame offsets:
#	150
#	15868
#	33777
#	54476
#	69742
#	86726
#	102351
#
# Disc length: 1596 seconds
#
# Revision: 0
# Processed by: cddbd v1.5.2PL0 Copyright (c) Steve Scherf et al.
# Submitted via: CDex 1.70beta2
#
DISCID=4d063a07
DTITLE=伊禮麻乃 - life is melody
DYEAR=2004
DGENRE=Country
TTITLE0=the sky
TTITLE1=片思い
TTITLE2=moon night
TTITLE3=星になった人へ
TTITLE4=ライチ
TTITLE5=恋人の頃
TTITLE6=幸せなほど
EXTD=YEAR: 2004
EXTT0=
EXTT1=
EXTT2=
EXTT3=
EXTT4=
EXTT5=
EXTT6=
PLAYORDER=
